<svg width="50" height="50" viewBox="0 0 50 50" fill="none" xmlns="http://www.w3.org/2000/svg">
<g id="toppings">
<g id="ham">
<rect id="Rectangle 3" width="50" height="50" fill="#D3FF77"/>
<path id="1" d="M25.2715 29H24.1816V21.7754L21.9961 22.5781V21.5938L25.1016 20.4277H25.2715V29Z" fill="black"/>
</g>
<g id="pepperoni">
<rect id="Rectangle 4" width="50" height="50" fill="#D3FF77"/>
<path id="2" d="M27.2988 29H21.709V28.2207L24.6621 24.9395C25.0996 24.4434 25.4004 24.041 25.5645 23.7324C25.7324 23.4199 25.8164 23.0977 25.8164 22.7656C25.8164 22.3203 25.6816 21.9551 25.4121 21.6699C25.1426 21.3848 24.7832 21.2422 24.334 21.2422C23.7949 21.2422 23.375 21.3965 23.0742 21.7051C22.7773 22.0098 22.6289 22.4355 22.6289 22.9824H21.5449C21.5449 22.1973 21.7969 21.5625 22.3008 21.0781C22.8086 20.5938 23.4863 20.3516 24.334 20.3516C25.127 20.3516 25.7539 20.5605 26.2148 20.9785C26.6758 21.3926 26.9062 21.9453 26.9062 22.6367C26.9062 23.4766 26.3711 24.4766 25.3008 25.6367L23.0156 28.1152H27.2988V29Z" fill="black"/>
</g>
<g id="sausage">
<rect id="Rectangle 6" width="50" height="50" fill="#D3FF77"/>
<path id="3" d="M23.2852 24.207H24.0996C24.6113 24.1992 25.0137 24.0645 25.3066 23.8027C25.5996 23.541 25.7461 23.1875 25.7461 22.7422C25.7461 21.7422 25.248 21.2422 24.252 21.2422C23.7832 21.2422 23.4082 21.377 23.127 21.6465C22.8496 21.9121 22.7109 22.2656 22.7109 22.707H21.627C21.627 22.0312 21.873 21.4707 22.3652 21.0254C22.8613 20.5762 23.4902 20.3516 24.252 20.3516C25.0566 20.3516 25.6875 20.5645 26.1445 20.9902C26.6016 21.416 26.8301 22.0078 26.8301 22.7656C26.8301 23.1367 26.709 23.4961 26.4668 23.8438C26.2285 24.1914 25.9023 24.4512 25.4883 24.623C25.957 24.7715 26.3184 25.0176 26.5723 25.3613C26.8301 25.7051 26.959 26.125 26.959 26.6211C26.959 27.3867 26.709 27.9941 26.209 28.4434C25.709 28.8926 25.0586 29.1172 24.2578 29.1172C23.457 29.1172 22.8047 28.9004 22.3008 28.4668C21.8008 28.0332 21.5508 27.4609 21.5508 26.75H22.6406C22.6406 27.1992 22.7871 27.5586 23.0801 27.8281C23.373 28.0977 23.7656 28.2324 24.2578 28.2324C24.7812 28.2324 25.1816 28.0957 25.459 27.8223C25.7363 27.5488 25.875 27.1562 25.875 26.6445C25.875 26.1484 25.7227 25.7676 25.418 25.502C25.1133 25.2363 24.6738 25.0996 24.0996 25.0918H23.2852V24.207Z" fill="black"/>
</g>
<g id="chicken">
<rect id="Rectangle 5" width="50" height="50" fill="#D3FF77"/>
<path id="4" d="M26.2852 26.1348H27.4688V27.0195H26.2852V29H25.1953V27.0195H21.3105V26.3809L25.1309 20.4688H26.2852V26.1348ZM22.541 26.1348H25.1953V21.9512L25.0664 22.1855L22.541 26.1348Z" fill="black"/>
</g>
<g id="onion">
<rect id="Rectangle 7" width="50" height="50" fill="#D3FF77"/>
<path id="5" d="M22.207 24.7227L22.6406 20.4688H27.0117V21.4707H23.5605L23.3027 23.7969C23.7207 23.5508 24.1953 23.4277 24.7266 23.4277C25.5039 23.4277 26.1211 23.6855 26.5781 24.2012C27.0352 24.7129 27.2637 25.4062 27.2637 26.2812C27.2637 27.1602 27.0254 27.8535 26.5488 28.3613C26.0762 28.8652 25.4141 29.1172 24.5625 29.1172C23.8086 29.1172 23.1934 28.9082 22.7168 28.4902C22.2402 28.0723 21.9688 27.4941 21.9023 26.7559H22.9277C22.9941 27.2441 23.168 27.6133 23.4492 27.8633C23.7305 28.1094 24.1016 28.2324 24.5625 28.2324C25.0664 28.2324 25.4609 28.0605 25.7461 27.7168C26.0352 27.373 26.1797 26.8984 26.1797 26.293C26.1797 25.7227 26.0234 25.2656 25.7109 24.9219C25.4023 24.5742 24.9902 24.4004 24.4746 24.4004C24.002 24.4004 23.6309 24.5039 23.3613 24.7109L23.0742 24.9453L22.207 24.7227Z" fill="black"/>
</g>
<g id="jalapeno">
<rect id="Rectangle 8" width="50" height="50" fill="#D3FF77"/>
<path id="6" d="M25.9629 20.4629V21.3828H25.7637C24.9199 21.3984 24.248 21.6484 23.748 22.1328C23.248 22.6172 22.959 23.2988 22.8809 24.1777C23.3301 23.6621 23.9434 23.4043 24.7207 23.4043C25.4629 23.4043 26.0547 23.666 26.4961 24.1895C26.9414 24.7129 27.1641 25.3887 27.1641 26.2168C27.1641 27.0957 26.9238 27.7988 26.4434 28.3262C25.9668 28.8535 25.3262 29.1172 24.5215 29.1172C23.7051 29.1172 23.043 28.8047 22.5352 28.1797C22.0273 27.5508 21.7734 26.7422 21.7734 25.7539V25.3379C21.7734 23.7676 22.1074 22.5684 22.7754 21.7402C23.4473 20.9082 24.4453 20.4824 25.7695 20.4629H25.9629ZM24.5391 24.3066C24.168 24.3066 23.8262 24.418 23.5137 24.6406C23.2012 24.8633 22.9844 25.1426 22.8633 25.4785V25.877C22.8633 26.5801 23.0215 27.1465 23.3379 27.5762C23.6543 28.0059 24.0488 28.2207 24.5215 28.2207C25.0098 28.2207 25.3926 28.041 25.6699 27.6816C25.9512 27.3223 26.0918 26.8516 26.0918 26.2695C26.0918 25.6836 25.9492 25.2109 25.6641 24.8516C25.3828 24.4883 25.0078 24.3066 24.5391 24.3066Z" fill="black"/>
</g>
<g id="pepper">
<rect id="Rectangle 9" width="50" height="50" fill="#D3FF77"/>
<path id="7" d="M27.2168 21.0781L23.6836 29H22.5469L26.0684 21.3594H21.4512V20.4688H27.2168V21.0781Z" fill="black"/>
</g>
<g id="tomato">
<rect id="Rectangle 10" width="50" height="50" fill="#D3FF77"/>
<path id="8" d="M26.8828 22.6953C26.8828 23.1211 26.7695 23.5 26.543 23.832C26.3203 24.1641 26.0176 24.4238 25.6348 24.6113C26.0801 24.8027 26.4316 25.082 26.6895 25.4492C26.9512 25.8164 27.082 26.2324 27.082 26.6973C27.082 27.4355 26.832 28.0234 26.332 28.4609C25.8359 28.8984 25.1816 29.1172 24.3691 29.1172C23.5488 29.1172 22.8906 28.8984 22.3945 28.4609C21.9023 28.0195 21.6562 27.4316 21.6562 26.6973C21.6562 26.2363 21.7812 25.8203 22.0312 25.4492C22.2852 25.0781 22.6348 24.7969 23.0801 24.6055C22.7012 24.418 22.4023 24.1582 22.1836 23.8262C21.9648 23.4941 21.8555 23.1172 21.8555 22.6953C21.8555 21.9766 22.0859 21.4062 22.5469 20.9844C23.0078 20.5625 23.6152 20.3516 24.3691 20.3516C25.1191 20.3516 25.7246 20.5625 26.1855 20.9844C26.6504 21.4062 26.8828 21.9766 26.8828 22.6953ZM25.998 26.6738C25.998 26.1973 25.8457 25.8086 25.541 25.5078C25.2402 25.207 24.8457 25.0566 24.3574 25.0566C23.8691 25.0566 23.4766 25.2051 23.1797 25.502C22.8867 25.7988 22.7402 26.1895 22.7402 26.6738C22.7402 27.1582 22.8828 27.5391 23.168 27.8164C23.457 28.0938 23.8574 28.2324 24.3691 28.2324C24.877 28.2324 25.2754 28.0938 25.5645 27.8164C25.8535 27.5352 25.998 27.1543 25.998 26.6738ZM24.3691 21.2422C23.9434 21.2422 23.5977 21.375 23.332 21.6406C23.0703 21.9023 22.9395 22.2598 22.9395 22.7129C22.9395 23.1465 23.0684 23.498 23.3262 23.7676C23.5879 24.0332 23.9355 24.166 24.3691 24.166C24.8027 24.166 25.1484 24.0332 25.4062 23.7676C25.668 23.498 25.7988 23.1465 25.7988 22.7129C25.7988 22.2793 25.6641 21.9258 25.3945 21.6523C25.125 21.3789 24.7832 21.2422 24.3691 21.2422Z" fill="black"/>
</g>
</g>
</svg>
